<svg xmlns="http://www.w3.org/2000/svg" width="82pt" height="96pt" viewBox="0 0 82 96"><path fill="#fc3a3a" d="M28.11 5.21C39.41.79 52.82 2.3 62.79 9.25c13.87 9.26 19.69 28.39 13.53 43.86-5.68 15.54-22.57 25.79-38.99 23.64.55 2.87 2.45 5.87 5.74 5.77 6.32-.26 11.93-3.68 17.18-6.91.87.81 1.83 1.58 2.22 2.75 1.77 4.3 3.37 8.68 5.14 12.98-1.02.79-2.21 1.28-3.52 1.16-15.91-.01-31.82-.02-47.73-.01-.12-1.28-.34-2.61.27-3.8 2.15-5.5 4.37-10.98 6.56-16.46-7.09-4.31-12.99-10.7-16.01-18.49-4.05-9.9-3.52-21.55 1.44-31.04 4.02-7.99 11.2-14.23 19.49-17.49M17.77 18.12c-.22.17-.67.53-.89.7-5.99 6.41-8.32 15.62-7.67 24.23 1.18 10.03 7.17 19.28 15.85 24.46 5.55-13.58 10.91-27.24 16.39-40.85 2.33 3.81 3.17 8.31 5.54 12.1l.19.25c.3 1.87.5 3.85-.56 5.54-4.21 8.61-7.98 17.6-9.24 27.18 14.69 2.28 30.15-7.16 34.74-21.3l.06-.15C77.85 35.78 70.71 18.1 57 11c-12.53-7.05-30.29-4.43-39.23 7.12Z" opacity="1.00"/><path fill="#040005" d="M17.77 18.12C26.71 6.57 44.47 3.95 57 11c13.71 7.1 20.85 24.78 15.18 39.28-.21-1.66.76-4.45-1.58-4.9-3.33-.43-6.72-.23-10.03-.92 4.02-.82 8.91 1.03 12.31-1.67 1.36-4.14.4-8.73-1.7-12.46-4.21 2.14-8.34 4.74-13.15 5.28 3.71-1.92 8.56-2.85 10.68-6.82 1.11-4.31-.9-10.15-5.66-11.2-1.16 1.93-2.21 4.04-4.1 5.36 1.66-1.71 1.49-4.08 1.59-6.24-4.39-.36-7.72 2.59-10.9 5.13 2.18-3.19 5.57-5.09 8.38-7.62-1.42-3.7-5.71-4.58-9.1-5.58-3.08-.64-6.97-1.71-9.54.71-2.65 2.68-1.79 6.69-1.84 10.08-.47-2.7-.34-5.59-1.51-8.12-1.8-2.6-5.52-1.59-7.74-.14-1.54 1.03-3.9 2.31-3.22 4.54 1.65 2.06 4.28 3.42 5.05 6.09.68 1.94 1.21 3.93 1.73 5.92-2.16-1.3-2.01-4.41-3.18-6.43-1.45-4.36-7.3-5.97-10.9-3.17Z" opacity="1.00"/><path fill="#fffea1" d="M39.38 9.35c2.57-2.42 6.46-1.35 9.54-.71 3.39 1 7.68 1.88 9.1 5.58-2.81 2.53-6.2 4.43-8.38 7.62 3.18-2.54 6.51-5.49 10.9-5.13-.1 2.16.07 4.53-1.59 6.24 1.89-1.32 2.94-3.43 4.1-5.36 4.76 1.05 6.77 6.89 5.66 11.2-2.12 3.97-6.97 4.9-10.68 6.82 4.81-.54 8.94-3.14 13.15-5.28 2.1 3.73 3.06 8.32 1.7 12.46-3.4 2.7-8.29.85-12.31 1.67 3.31.69 6.7.49 10.03.92 2.34.45 1.37 3.24 1.58 4.9l-.06.15c-2.03 3.26-3.24 7.52-6.94 9.32-3.42-2.08-5.21-6.4-9.38-7.59 2.92 2.29 6.4 4.77 6.74 8.83.42 2.16-1.47 3.62-2.96 4.8-1.86 1.38-4.1 2.73-6.52 2.17-1.27-.74-1.89-2.15-2.67-3.32.14 1.72.46 3.56-.41 5.16-2.68 1.65-6.01 2.05-9.06 1.48-3.06-1.23-1.55-4.73-.83-6.99.7-.15 2.09-.44 2.78-.58-.41-.43-1.22-1.29-1.63-1.72.51-2.46.72-5.38 2.96-6.96 3.75-.2 6.74 2.59 10.04 3.96-2.75-2.1-6.06-3.37-8.67-5.63-1.57-2.17-.04-7.04 3.18-6.09 3.22.72 6.45 1.45 9.76 1.61-3.38-1.08-7.08-1.29-10.22-3.04-.16-1.07-.28-2.14-.37-3.22 1.5-.64 2.99-1.29 4.47-1.96-1.18.12-2.36.25-3.53.39-.57-.67-1.13-1.35-1.68-2.04l-.19-.25c-1.14-6.19 6.05-7.39 10.22-9.35-3.42.74-6.65 2.13-10.07 2.83-2.14-.04-2.86-2.27-3.46-3.93-1.38-3.73.94-7.34 2.14-10.77-3.11 3.55-4.94 7.92-7.22 11.99-1.61 2.82-4.96 5.62-8.38 4.24-1.78-2.08-2.86-4.64-4.2-7 .64 2.35.85 4.93 2.17 7.04 1.63 2.26 4.7 1.42 7.06 1.57.05 2.95-.32 6.23-2.61 8.36-1.94 1.69-4.7.67-7.01.87 2.06.67 4.16 1.15 6.28 1.58-.31 2.43-.8 5.12-3.08 6.51-3.16-.08-6.24-.88-9.4-1.01 2.97 1.13 8.09 1.13 8 5.44-.26 2.83-.89 6.17-3.42 7.88-2.37-.32-4.53-1.88-5.58-4.03.26-2.41 3.11-2.11 4.82-2.89-2.13.22-4.26.57-6.41.56-3.38-2.03-4.6-6.14-5.2-9.81 2.6-1.34 5.5-1.68 8.37-1.82-2.91-.57-5.87-.24-8.81-.17-2.39-1.45-1.57-5.2-1.06-7.51 3.76-4.39 10.23-2.38 14.92-.79-2.11-1.11-4.21-2.4-6.61-2.76-2.67-.2-5.29.57-7.95.66.02-4.11 1.07-8.21 2.89-11.88.52-1.43 2.15-1.47 3.36-1.92.21 2.41.4 4.83.59 7.25.33.38.66.77.98 1.15-.34-4.09-1.22-8.12-1.44-12.23.22-.17.67-.53.89-.7 3.6-2.8 9.45-1.19 10.9 3.17 1.17 2.02 1.02 5.13 3.18 6.43-.52-1.99-1.05-3.98-1.73-5.92-.77-2.67-3.4-4.03-5.05-6.09-.68-2.23 1.68-3.51 3.22-4.54 2.22-1.45 5.94-2.46 7.74.14 1.17 2.53 1.04 5.42 1.51 8.12.05-3.39-.81-7.4 1.84-10.08Z" opacity="1.00"/><path fill="#070107" d="M38.6 29.53c2.28-4.07 4.11-8.44 7.22-11.99-1.2 3.43-3.52 7.04-2.14 10.77.6 1.66 1.32 3.89 3.46 3.93 3.42-.7 6.65-2.09 10.07-2.83-4.17 1.96-11.36 3.16-10.22 9.35-2.37-3.79-3.21-8.29-5.54-12.1-5.48 13.61-10.84 27.27-16.39 40.85-8.68-5.18-14.67-14.43-15.85-24.46-.65-8.61 1.68-17.82 7.67-24.23.22 4.11 1.1 8.14 1.44 12.23-.32-.38-.65-.77-.98-1.15-.19-2.42-.38-4.84-.59-7.25-1.21.45-2.84.49-3.36 1.92-1.82 3.67-2.87 7.77-2.89 11.88 2.66-.09 5.28-.86 7.95-.66 2.4.36 4.5 1.65 6.61 2.76-4.69-1.59-11.16-3.6-14.92.79-.51 2.31-1.33 6.06 1.06 7.51 2.94-.07 5.9-.4 8.81.17-2.87.14-5.77.48-8.37 1.82.6 3.67 1.82 7.78 5.2 9.81 2.15.01 4.28-.34 6.41-.56-1.71.78-4.56.48-4.82 2.89 1.05 2.15 3.21 3.71 5.58 4.03 2.53-1.71 3.16-5.05 3.42-7.88.09-4.31-5.03-4.31-8-5.44 3.16.13 6.24.93 9.4 1.01 2.28-1.39 2.77-4.08 3.08-6.51-2.12-.43-4.22-.91-6.28-1.58 2.31-.2 5.07.82 7.01-.87 2.29-2.13 2.66-5.41 2.61-8.36-2.36-.15-5.43.69-7.06-1.57-1.32-2.11-1.53-4.69-2.17-7.04 1.34 2.36 2.42 4.92 4.2 7 3.42 1.38 6.77-1.42 8.38-4.24Z" opacity="1.00"/><path fill="#010204" d="M47.18 39.01c.55.69 1.11 1.37 1.68 2.04 1.17-.14 2.35-.27 3.53-.39-1.48.67-2.97 1.32-4.47 1.96.09 1.08.21 2.15.37 3.22 3.14 1.75 6.84 1.96 10.22 3.04-3.31-.16-6.54-.89-9.76-1.61-3.22-.95-4.75 3.92-3.18 6.09 2.61 2.26 5.92 3.53 8.67 5.63-3.3-1.37-6.29-4.16-10.04-3.96-2.24 1.58-2.45 4.5-2.96 6.96.41.43 1.22 1.29 1.63 1.72-.69.14-2.08.43-2.78.58-.72 2.26-2.23 5.76.83 6.99 3.05.57 6.38.17 9.06-1.48.87-1.6.55-3.44.41-5.16.78 1.17 1.4 2.58 2.67 3.32 2.42.56 4.66-.79 6.52-2.17 1.49-1.18 3.38-2.64 2.96-4.8-.34-4.06-3.82-6.54-6.74-8.83 4.17 1.19 5.96 5.51 9.38 7.59 3.7-1.8 4.91-6.06 6.94-9.32-4.59 14.14-20.05 23.58-34.74 21.3 1.26-9.58 5.03-18.57 9.24-27.18 1.06-1.69.86-3.67.56-5.54Z" opacity="1.00"/></svg>